<svg xmlns="http://www.w3.org/2000/svg" width="720" height="960" viewBox="0 0 720 960" role="img" aria-labelledby="title desc">
  <title id="title">HN × LLM</title>
  <desc id="desc">A heatmap of Hacker News stories found around model releases in 2026, one row per company and one column per week, darker for more stories. The busiest week for one company had 60.</desc>
  <rect width="720" height="960" fill="#eeeee7"/>
  <text x="56" y="84" font-family="Arial, sans-serif" font-size="16" letter-spacing="3" fill="#4b6257">RESEARCH / MODEL RELEASES</text>
  <text x="56" y="176" font-family="Georgia, serif" font-size="84" fill="#263d32">HN <tspan fill="#849588">×</tspan> LLM</text>
  <path d="M56 212H664M56 876H664" stroke="#bdc3bc"/>
  <text x="166" y="275.0" text-anchor="end" font-family="Arial, sans-serif" font-size="14" fill="#4b6257">OpenAI</text>
  <rect x="179.0" y="252.0" width="10.2" height="36.0" rx="2" fill="#e2e3db"/>
  <rect x="191.2" y="252.0" width="10.2" height="36.0" rx="2" fill="#e2e3db"/>
  <rect x="203.3" y="252.0" width="10.2" height="36.0" rx="2" fill="#e2e3db"/>
  <rect x="215.4" y="252.0" width="10.2" height="36.0" rx="2" fill="#e2e3db"/>
  <rect x="227.6" y="252.0" width="10.2" height="36.0" rx="2" fill="#e2e3db"/>
  <rect x="239.8" y="252.0" width="10.2" height="36.0" rx="2" fill="#8d9d92"/>
  <rect x="251.9" y="252.0" width="10.2" height="36.0" rx="2" fill="#708176"/>
  <rect x="264.1" y="252.0" width="10.2" height="36.0" rx="2" fill="#9fada2"/>
  <rect x="276.2" y="252.0" width="10.2" height="36.0" rx="2" fill="#9fada2"/>
  <rect x="288.4" y="252.0" width="10.2" height="36.0" rx="2" fill="#5c6f64"/>
  <rect x="300.5" y="252.0" width="10.2" height="36.0" rx="2" fill="#9fada2"/>
  <rect x="312.6" y="252.0" width="10.2" height="36.0" rx="2" fill="#a5b2a7"/>
  <rect x="324.8" y="252.0" width="10.2" height="36.0" rx="2" fill="#a5b2a7"/>
  <rect x="337.0" y="252.0" width="10.2" height="36.0" rx="2" fill="#abb8ad"/>
  <rect x="349.1" y="252.0" width="10.2" height="36.0" rx="2" fill="#e2e3db"/>
  <rect x="361.2" y="252.0" width="10.2" height="36.0" rx="2" fill="#e2e3db"/>
  <rect x="373.4" y="252.0" width="10.2" height="36.0" rx="2" fill="#66796e"/>
  <rect x="385.6" y="252.0" width="10.2" height="36.0" rx="2" fill="#66796e"/>
  <rect x="397.7" y="252.0" width="10.2" height="36.0" rx="2" fill="#839388"/>
  <rect x="409.9" y="252.0" width="10.2" height="36.0" rx="2" fill="#9aa89d"/>
  <rect x="422.0" y="252.0" width="10.2" height="36.0" rx="2" fill="#abb8ad"/>
  <rect x="434.1" y="252.0" width="10.2" height="36.0" rx="2" fill="#e2e3db"/>
  <rect x="446.3" y="252.0" width="10.2" height="36.0" rx="2" fill="#e2e3db"/>
  <rect x="458.4" y="252.0" width="10.2" height="36.0" rx="2" fill="#e2e3db"/>
  <rect x="470.6" y="252.0" width="10.2" height="36.0" rx="2" fill="#e2e3db"/>
  <rect x="482.8" y="252.0" width="10.2" height="36.0" rx="2" fill="#66796e"/>
  <rect x="494.9" y="252.0" width="10.2" height="36.0" rx="2" fill="#abb8ad"/>
  <rect x="507.1" y="252.0" width="10.2" height="36.0" rx="2" fill="#495d52"/>
  <rect x="519.2" y="252.0" width="10.2" height="36.0" rx="2" fill="#44594e"/>
  <rect x="531.4" y="252.0" width="10.2" height="36.0" rx="2" fill="#728479"/>
  <rect x="543.5" y="252.0" width="10.2" height="36.0" rx="2" fill="#e2e3db"/>
  <rect x="555.7" y="252.0" width="10.2" height="36.0" rx="2" fill="#e2e3db"/>
  <rect x="567.8" y="252.0" width="10.2" height="36.0" rx="2" fill="#e2e3db"/>
  <rect x="580.0" y="252.0" width="10.2" height="36.0" rx="2" fill="#e2e3db"/>
  <rect x="592.1" y="252.0" width="10.2" height="36.0" rx="2" fill="#9aa89d"/>
  <rect x="604.2" y="252.0" width="10.2" height="36.0" rx="2" fill="#263d32"/>
  <rect x="616.4" y="252.0" width="10.2" height="36.0" rx="2" fill="#344a3f"/>
  <rect x="628.5" y="252.0" width="10.2" height="36.0" rx="2" fill="#64776c"/>
  <rect x="640.7" y="252.0" width="10.2" height="36.0" rx="2" fill="#56695e"/>
  <rect x="652.9" y="252.0" width="10.2" height="36.0" rx="2" fill="#5a6d62"/>
  <text x="166" y="315.0" text-anchor="end" font-family="Arial, sans-serif" font-size="14" fill="#4b6257">Anthropic</text>
  <rect x="179.0" y="292.0" width="10.2" height="36.0" rx="2" fill="#e2e3db"/>
  <rect x="191.2" y="292.0" width="10.2" height="36.0" rx="2" fill="#e2e3db"/>
  <rect x="203.3" y="292.0" width="10.2" height="36.0" rx="2" fill="#e2e3db"/>
  <rect x="215.4" y="292.0" width="10.2" height="36.0" rx="2" fill="#e2e3db"/>
  <rect x="227.6" y="292.0" width="10.2" height="36.0" rx="2" fill="#e2e3db"/>
  <rect x="239.8" y="292.0" width="10.2" height="36.0" rx="2" fill="#54675c"/>
  <rect x="251.9" y="292.0" width="10.2" height="36.0" rx="2" fill="#66796e"/>
  <rect x="264.1" y="292.0" width="10.2" height="36.0" rx="2" fill="#75867b"/>
  <rect x="276.2" y="292.0" width="10.2" height="36.0" rx="2" fill="#a5b2a7"/>
  <rect x="288.4" y="292.0" width="10.2" height="36.0" rx="2" fill="#839388"/>
  <rect x="300.5" y="292.0" width="10.2" height="36.0" rx="2" fill="#a5b2a7"/>
  <rect x="312.6" y="292.0" width="10.2" height="36.0" rx="2" fill="#b4c1b6"/>
  <rect x="324.8" y="292.0" width="10.2" height="36.0" rx="2" fill="#e2e3db"/>
  <rect x="337.0" y="292.0" width="10.2" height="36.0" rx="2" fill="#e2e3db"/>
  <rect x="349.1" y="292.0" width="10.2" height="36.0" rx="2" fill="#e2e3db"/>
  <rect x="361.2" y="292.0" width="10.2" height="36.0" rx="2" fill="#627469"/>
  <rect x="373.4" y="292.0" width="10.2" height="36.0" rx="2" fill="#809085"/>
  <rect x="385.6" y="292.0" width="10.2" height="36.0" rx="2" fill="#95a499"/>
  <rect x="397.7" y="292.0" width="10.2" height="36.0" rx="2" fill="#abb8ad"/>
  <rect x="409.9" y="292.0" width="10.2" height="36.0" rx="2" fill="#91a095"/>
  <rect x="422.0" y="292.0" width="10.2" height="36.0" rx="2" fill="#e2e3db"/>
  <rect x="434.1" y="292.0" width="10.2" height="36.0" rx="2" fill="#7d8e83"/>
  <rect x="446.3" y="292.0" width="10.2" height="36.0" rx="2" fill="#91a095"/>
  <rect x="458.4" y="292.0" width="10.2" height="36.0" rx="2" fill="#2d4338"/>
  <rect x="470.6" y="292.0" width="10.2" height="36.0" rx="2" fill="#839388"/>
  <rect x="482.8" y="292.0" width="10.2" height="36.0" rx="2" fill="#8a9a8f"/>
  <rect x="494.9" y="292.0" width="10.2" height="36.0" rx="2" fill="#475c51"/>
  <rect x="507.1" y="292.0" width="10.2" height="36.0" rx="2" fill="#839388"/>
  <rect x="519.2" y="292.0" width="10.2" height="36.0" rx="2" fill="#abb8ad"/>
  <rect x="531.4" y="292.0" width="10.2" height="36.0" rx="2" fill="#697b70"/>
  <rect x="543.5" y="292.0" width="10.2" height="36.0" rx="2" fill="#506459"/>
  <rect x="555.7" y="292.0" width="10.2" height="36.0" rx="2" fill="#91a095"/>
  <rect x="567.8" y="292.0" width="10.2" height="36.0" rx="2" fill="#95a499"/>
  <rect x="580.0" y="292.0" width="10.2" height="36.0" rx="2" fill="#91a095"/>
  <rect x="592.1" y="292.0" width="10.2" height="36.0" rx="2" fill="#e2e3db"/>
  <rect x="604.2" y="292.0" width="10.2" height="36.0" rx="2" fill="#52665b"/>
  <rect x="616.4" y="292.0" width="10.2" height="36.0" rx="2" fill="#7d8e83"/>
  <rect x="628.5" y="292.0" width="10.2" height="36.0" rx="2" fill="#9aa89d"/>
  <rect x="640.7" y="292.0" width="10.2" height="36.0" rx="2" fill="#495d52"/>
  <rect x="652.9" y="292.0" width="10.2" height="36.0" rx="2" fill="#6b7d72"/>
  <text x="166" y="355.0" text-anchor="end" font-family="Arial, sans-serif" font-size="14" fill="#4b6257">Google DeepMind</text>
  <rect x="179.0" y="332.0" width="10.2" height="36.0" rx="2" fill="#e2e3db"/>
  <rect x="191.2" y="332.0" width="10.2" height="36.0" rx="2" fill="#e2e3db"/>
  <rect x="203.3" y="332.0" width="10.2" height="36.0" rx="2" fill="#e2e3db"/>
  <rect x="215.4" y="332.0" width="10.2" height="36.0" rx="2" fill="#e2e3db"/>
  <rect x="227.6" y="332.0" width="10.2" height="36.0" rx="2" fill="#e2e3db"/>
  <rect x="239.8" y="332.0" width="10.2" height="36.0" rx="2" fill="#e2e3db"/>
  <rect x="251.9" y="332.0" width="10.2" height="36.0" rx="2" fill="#e2e3db"/>
  <rect x="264.1" y="332.0" width="10.2" height="36.0" rx="2" fill="#b4c1b6"/>
  <rect x="276.2" y="332.0" width="10.2" height="36.0" rx="2" fill="#e2e3db"/>
  <rect x="288.4" y="332.0" width="10.2" height="36.0" rx="2" fill="#abb8ad"/>
  <rect x="300.5" y="332.0" width="10.2" height="36.0" rx="2" fill="#e2e3db"/>
  <rect x="312.6" y="332.0" width="10.2" height="36.0" rx="2" fill="#e2e3db"/>
  <rect x="324.8" y="332.0" width="10.2" height="36.0" rx="2" fill="#e2e3db"/>
  <rect x="337.0" y="332.0" width="10.2" height="36.0" rx="2" fill="#abb8ad"/>
  <rect x="349.1" y="332.0" width="10.2" height="36.0" rx="2" fill="#abb8ad"/>
  <rect x="361.2" y="332.0" width="10.2" height="36.0" rx="2" fill="#9fada2"/>
  <rect x="373.4" y="332.0" width="10.2" height="36.0" rx="2" fill="#abb8ad"/>
  <rect x="385.6" y="332.0" width="10.2" height="36.0" rx="2" fill="#b4c1b6"/>
  <rect x="397.7" y="332.0" width="10.2" height="36.0" rx="2" fill="#e2e3db"/>
  <rect x="409.9" y="332.0" width="10.2" height="36.0" rx="2" fill="#e2e3db"/>
  <rect x="422.0" y="332.0" width="10.2" height="36.0" rx="2" fill="#839388"/>
  <rect x="434.1" y="332.0" width="10.2" height="36.0" rx="2" fill="#b4c1b6"/>
  <rect x="446.3" y="332.0" width="10.2" height="36.0" rx="2" fill="#91a095"/>
  <rect x="458.4" y="332.0" width="10.2" height="36.0" rx="2" fill="#8d9d92"/>
  <rect x="470.6" y="332.0" width="10.2" height="36.0" rx="2" fill="#a5b2a7"/>
  <rect x="482.8" y="332.0" width="10.2" height="36.0" rx="2" fill="#abb8ad"/>
  <rect x="494.9" y="332.0" width="10.2" height="36.0" rx="2" fill="#abb8ad"/>
  <rect x="507.1" y="332.0" width="10.2" height="36.0" rx="2" fill="#e2e3db"/>
  <rect x="519.2" y="332.0" width="10.2" height="36.0" rx="2" fill="#e2e3db"/>
  <rect x="531.4" y="332.0" width="10.2" height="36.0" rx="2" fill="#8a9a8f"/>
  <rect x="543.5" y="332.0" width="10.2" height="36.0" rx="2" fill="#b4c1b6"/>
  <rect x="555.7" y="332.0" width="10.2" height="36.0" rx="2" fill="#e2e3db"/>
  <rect x="567.8" y="332.0" width="10.2" height="36.0" rx="2" fill="#95a499"/>
  <rect x="580.0" y="332.0" width="10.2" height="36.0" rx="2" fill="#9fada2"/>
  <rect x="592.1" y="332.0" width="10.2" height="36.0" rx="2" fill="#b4c1b6"/>
  <rect x="604.2" y="332.0" width="10.2" height="36.0" rx="2" fill="#78887e"/>
  <rect x="616.4" y="332.0" width="10.2" height="36.0" rx="2" fill="#b4c1b6"/>
  <rect x="628.5" y="332.0" width="10.2" height="36.0" rx="2" fill="#b4c1b6"/>
  <rect x="640.7" y="332.0" width="10.2" height="36.0" rx="2" fill="#e2e3db"/>
  <rect x="652.9" y="332.0" width="10.2" height="36.0" rx="2" fill="#b4c1b6"/>
  <text x="166" y="395.0" text-anchor="end" font-family="Arial, sans-serif" font-size="14" fill="#4b6257">Meta</text>
  <rect x="179.0" y="372.0" width="10.2" height="36.0" rx="2" fill="#e2e3db"/>
  <rect x="191.2" y="372.0" width="10.2" height="36.0" rx="2" fill="#e2e3db"/>
  <rect x="203.3" y="372.0" width="10.2" height="36.0" rx="2" fill="#e2e3db"/>
  <rect x="215.4" y="372.0" width="10.2" height="36.0" rx="2" fill="#e2e3db"/>
  <rect x="227.6" y="372.0" width="10.2" height="36.0" rx="2" fill="#e2e3db"/>
  <rect x="239.8" y="372.0" width="10.2" height="36.0" rx="2" fill="#e2e3db"/>
  <rect x="251.9" y="372.0" width="10.2" height="36.0" rx="2" fill="#e2e3db"/>
  <rect x="264.1" y="372.0" width="10.2" height="36.0" rx="2" fill="#e2e3db"/>
  <rect x="276.2" y="372.0" width="10.2" height="36.0" rx="2" fill="#e2e3db"/>
  <rect x="288.4" y="372.0" width="10.2" height="36.0" rx="2" fill="#e2e3db"/>
  <rect x="300.5" y="372.0" width="10.2" height="36.0" rx="2" fill="#e2e3db"/>
  <rect x="312.6" y="372.0" width="10.2" height="36.0" rx="2" fill="#e2e3db"/>
  <rect x="324.8" y="372.0" width="10.2" height="36.0" rx="2" fill="#e2e3db"/>
  <rect x="337.0" y="372.0" width="10.2" height="36.0" rx="2" fill="#e2e3db"/>
  <rect x="349.1" y="372.0" width="10.2" height="36.0" rx="2" fill="#8a9a8f"/>
  <rect x="361.2" y="372.0" width="10.2" height="36.0" rx="2" fill="#e2e3db"/>
  <rect x="373.4" y="372.0" width="10.2" height="36.0" rx="2" fill="#e2e3db"/>
  <rect x="385.6" y="372.0" width="10.2" height="36.0" rx="2" fill="#a5b2a7"/>
  <rect x="397.7" y="372.0" width="10.2" height="36.0" rx="2" fill="#e2e3db"/>
  <rect x="409.9" y="372.0" width="10.2" height="36.0" rx="2" fill="#e2e3db"/>
  <rect x="422.0" y="372.0" width="10.2" height="36.0" rx="2" fill="#e2e3db"/>
  <rect x="434.1" y="372.0" width="10.2" height="36.0" rx="2" fill="#e2e3db"/>
  <rect x="446.3" y="372.0" width="10.2" height="36.0" rx="2" fill="#e2e3db"/>
  <rect x="458.4" y="372.0" width="10.2" height="36.0" rx="2" fill="#e2e3db"/>
  <rect x="470.6" y="372.0" width="10.2" height="36.0" rx="2" fill="#e2e3db"/>
  <rect x="482.8" y="372.0" width="10.2" height="36.0" rx="2" fill="#e2e3db"/>
  <rect x="494.9" y="372.0" width="10.2" height="36.0" rx="2" fill="#e2e3db"/>
  <rect x="507.1" y="372.0" width="10.2" height="36.0" rx="2" fill="#e2e3db"/>
  <rect x="519.2" y="372.0" width="10.2" height="36.0" rx="2" fill="#e2e3db"/>
  <rect x="531.4" y="372.0" width="10.2" height="36.0" rx="2" fill="#e2e3db"/>
  <rect x="543.5" y="372.0" width="10.2" height="36.0" rx="2" fill="#e2e3db"/>
  <rect x="555.7" y="372.0" width="10.2" height="36.0" rx="2" fill="#e2e3db"/>
  <rect x="567.8" y="372.0" width="10.2" height="36.0" rx="2" fill="#e2e3db"/>
  <rect x="580.0" y="372.0" width="10.2" height="36.0" rx="2" fill="#e2e3db"/>
  <rect x="592.1" y="372.0" width="10.2" height="36.0" rx="2" fill="#e2e3db"/>
  <rect x="604.2" y="372.0" width="10.2" height="36.0" rx="2" fill="#e2e3db"/>
  <rect x="616.4" y="372.0" width="10.2" height="36.0" rx="2" fill="#e2e3db"/>
  <rect x="628.5" y="372.0" width="10.2" height="36.0" rx="2" fill="#e2e3db"/>
  <rect x="640.7" y="372.0" width="10.2" height="36.0" rx="2" fill="#e2e3db"/>
  <rect x="652.9" y="372.0" width="10.2" height="36.0" rx="2" fill="#e2e3db"/>
  <text x="166" y="435.0" text-anchor="end" font-family="Arial, sans-serif" font-size="14" fill="#4b6257">xAI</text>
  <rect x="179.0" y="412.0" width="10.2" height="36.0" rx="2" fill="#e2e3db"/>
  <rect x="191.2" y="412.0" width="10.2" height="36.0" rx="2" fill="#e2e3db"/>
  <rect x="203.3" y="412.0" width="10.2" height="36.0" rx="2" fill="#e2e3db"/>
  <rect x="215.4" y="412.0" width="10.2" height="36.0" rx="2" fill="#e2e3db"/>
  <rect x="227.6" y="412.0" width="10.2" height="36.0" rx="2" fill="#e2e3db"/>
  <rect x="239.8" y="412.0" width="10.2" height="36.0" rx="2" fill="#e2e3db"/>
  <rect x="251.9" y="412.0" width="10.2" height="36.0" rx="2" fill="#e2e3db"/>
  <rect x="264.1" y="412.0" width="10.2" height="36.0" rx="2" fill="#e2e3db"/>
  <rect x="276.2" y="412.0" width="10.2" height="36.0" rx="2" fill="#e2e3db"/>
  <rect x="288.4" y="412.0" width="10.2" height="36.0" rx="2" fill="#e2e3db"/>
  <rect x="300.5" y="412.0" width="10.2" height="36.0" rx="2" fill="#b4c1b6"/>
  <rect x="312.6" y="412.0" width="10.2" height="36.0" rx="2" fill="#e2e3db"/>
  <rect x="324.8" y="412.0" width="10.2" height="36.0" rx="2" fill="#e2e3db"/>
  <rect x="337.0" y="412.0" width="10.2" height="36.0" rx="2" fill="#e2e3db"/>
  <rect x="349.1" y="412.0" width="10.2" height="36.0" rx="2" fill="#e2e3db"/>
  <rect x="361.2" y="412.0" width="10.2" height="36.0" rx="2" fill="#e2e3db"/>
  <rect x="373.4" y="412.0" width="10.2" height="36.0" rx="2" fill="#e2e3db"/>
  <rect x="385.6" y="412.0" width="10.2" height="36.0" rx="2" fill="#abb8ad"/>
  <rect x="397.7" y="412.0" width="10.2" height="36.0" rx="2" fill="#b4c1b6"/>
  <rect x="409.9" y="412.0" width="10.2" height="36.0" rx="2" fill="#e2e3db"/>
  <rect x="422.0" y="412.0" width="10.2" height="36.0" rx="2" fill="#b4c1b6"/>
  <rect x="434.1" y="412.0" width="10.2" height="36.0" rx="2" fill="#b4c1b6"/>
  <rect x="446.3" y="412.0" width="10.2" height="36.0" rx="2" fill="#b4c1b6"/>
  <rect x="458.4" y="412.0" width="10.2" height="36.0" rx="2" fill="#e2e3db"/>
  <rect x="470.6" y="412.0" width="10.2" height="36.0" rx="2" fill="#e2e3db"/>
  <rect x="482.8" y="412.0" width="10.2" height="36.0" rx="2" fill="#b4c1b6"/>
  <rect x="494.9" y="412.0" width="10.2" height="36.0" rx="2" fill="#e2e3db"/>
  <rect x="507.1" y="412.0" width="10.2" height="36.0" rx="2" fill="#95a499"/>
  <rect x="519.2" y="412.0" width="10.2" height="36.0" rx="2" fill="#b4c1b6"/>
  <rect x="531.4" y="412.0" width="10.2" height="36.0" rx="2" fill="#abb8ad"/>
  <rect x="543.5" y="412.0" width="10.2" height="36.0" rx="2" fill="#a5b2a7"/>
  <rect x="555.7" y="412.0" width="10.2" height="36.0" rx="2" fill="#e2e3db"/>
  <rect x="567.8" y="412.0" width="10.2" height="36.0" rx="2" fill="#809085"/>
  <rect x="580.0" y="412.0" width="10.2" height="36.0" rx="2" fill="#a5b2a7"/>
  <rect x="592.1" y="412.0" width="10.2" height="36.0" rx="2" fill="#e2e3db"/>
  <rect x="604.2" y="412.0" width="10.2" height="36.0" rx="2" fill="#b4c1b6"/>
  <rect x="616.4" y="412.0" width="10.2" height="36.0" rx="2" fill="#e2e3db"/>
  <rect x="628.5" y="412.0" width="10.2" height="36.0" rx="2" fill="#b4c1b6"/>
  <rect x="640.7" y="412.0" width="10.2" height="36.0" rx="2" fill="#95a499"/>
  <rect x="652.9" y="412.0" width="10.2" height="36.0" rx="2" fill="#e2e3db"/>
  <text x="166" y="475.0" text-anchor="end" font-family="Arial, sans-serif" font-size="14" fill="#4b6257">Mistral</text>
  <rect x="179.0" y="452.0" width="10.2" height="36.0" rx="2" fill="#e2e3db"/>
  <rect x="191.2" y="452.0" width="10.2" height="36.0" rx="2" fill="#e2e3db"/>
  <rect x="203.3" y="452.0" width="10.2" height="36.0" rx="2" fill="#e2e3db"/>
  <rect x="215.4" y="452.0" width="10.2" height="36.0" rx="2" fill="#e2e3db"/>
  <rect x="227.6" y="452.0" width="10.2" height="36.0" rx="2" fill="#e2e3db"/>
  <rect x="239.8" y="452.0" width="10.2" height="36.0" rx="2" fill="#e2e3db"/>
  <rect x="251.9" y="452.0" width="10.2" height="36.0" rx="2" fill="#e2e3db"/>
  <rect x="264.1" y="452.0" width="10.2" height="36.0" rx="2" fill="#e2e3db"/>
  <rect x="276.2" y="452.0" width="10.2" height="36.0" rx="2" fill="#e2e3db"/>
  <rect x="288.4" y="452.0" width="10.2" height="36.0" rx="2" fill="#e2e3db"/>
  <rect x="300.5" y="452.0" width="10.2" height="36.0" rx="2" fill="#e2e3db"/>
  <rect x="312.6" y="452.0" width="10.2" height="36.0" rx="2" fill="#abb8ad"/>
  <rect x="324.8" y="452.0" width="10.2" height="36.0" rx="2" fill="#e2e3db"/>
  <rect x="337.0" y="452.0" width="10.2" height="36.0" rx="2" fill="#e2e3db"/>
  <rect x="349.1" y="452.0" width="10.2" height="36.0" rx="2" fill="#e2e3db"/>
  <rect x="361.2" y="452.0" width="10.2" height="36.0" rx="2" fill="#e2e3db"/>
  <rect x="373.4" y="452.0" width="10.2" height="36.0" rx="2" fill="#e2e3db"/>
  <rect x="385.6" y="452.0" width="10.2" height="36.0" rx="2" fill="#9fada2"/>
  <rect x="397.7" y="452.0" width="10.2" height="36.0" rx="2" fill="#b4c1b6"/>
  <rect x="409.9" y="452.0" width="10.2" height="36.0" rx="2" fill="#e2e3db"/>
  <rect x="422.0" y="452.0" width="10.2" height="36.0" rx="2" fill="#e2e3db"/>
  <rect x="434.1" y="452.0" width="10.2" height="36.0" rx="2" fill="#e2e3db"/>
  <rect x="446.3" y="452.0" width="10.2" height="36.0" rx="2" fill="#e2e3db"/>
  <rect x="458.4" y="452.0" width="10.2" height="36.0" rx="2" fill="#e2e3db"/>
  <rect x="470.6" y="452.0" width="10.2" height="36.0" rx="2" fill="#e2e3db"/>
  <rect x="482.8" y="452.0" width="10.2" height="36.0" rx="2" fill="#e2e3db"/>
  <rect x="494.9" y="452.0" width="10.2" height="36.0" rx="2" fill="#9fada2"/>
  <rect x="507.1" y="452.0" width="10.2" height="36.0" rx="2" fill="#e2e3db"/>
  <rect x="519.2" y="452.0" width="10.2" height="36.0" rx="2" fill="#e2e3db"/>
  <rect x="531.4" y="452.0" width="10.2" height="36.0" rx="2" fill="#e2e3db"/>
  <rect x="543.5" y="452.0" width="10.2" height="36.0" rx="2" fill="#e2e3db"/>
  <rect x="555.7" y="452.0" width="10.2" height="36.0" rx="2" fill="#e2e3db"/>
  <rect x="567.8" y="452.0" width="10.2" height="36.0" rx="2" fill="#e2e3db"/>
  <rect x="580.0" y="452.0" width="10.2" height="36.0" rx="2" fill="#e2e3db"/>
  <rect x="592.1" y="452.0" width="10.2" height="36.0" rx="2" fill="#e2e3db"/>
  <rect x="604.2" y="452.0" width="10.2" height="36.0" rx="2" fill="#e2e3db"/>
  <rect x="616.4" y="452.0" width="10.2" height="36.0" rx="2" fill="#e2e3db"/>
  <rect x="628.5" y="452.0" width="10.2" height="36.0" rx="2" fill="#e2e3db"/>
  <rect x="640.7" y="452.0" width="10.2" height="36.0" rx="2" fill="#e2e3db"/>
  <rect x="652.9" y="452.0" width="10.2" height="36.0" rx="2" fill="#e2e3db"/>
  <text x="166" y="515.0" text-anchor="end" font-family="Arial, sans-serif" font-size="14" fill="#4b6257">Moonshot</text>
  <rect x="179.0" y="492.0" width="10.2" height="36.0" rx="2" fill="#e2e3db"/>
  <rect x="191.2" y="492.0" width="10.2" height="36.0" rx="2" fill="#e2e3db"/>
  <rect x="203.3" y="492.0" width="10.2" height="36.0" rx="2" fill="#e2e3db"/>
  <rect x="215.4" y="492.0" width="10.2" height="36.0" rx="2" fill="#e2e3db"/>
  <rect x="227.6" y="492.0" width="10.2" height="36.0" rx="2" fill="#839388"/>
  <rect x="239.8" y="492.0" width="10.2" height="36.0" rx="2" fill="#9fada2"/>
  <rect x="251.9" y="492.0" width="10.2" height="36.0" rx="2" fill="#b4c1b6"/>
  <rect x="264.1" y="492.0" width="10.2" height="36.0" rx="2" fill="#abb8ad"/>
  <rect x="276.2" y="492.0" width="10.2" height="36.0" rx="2" fill="#b4c1b6"/>
  <rect x="288.4" y="492.0" width="10.2" height="36.0" rx="2" fill="#e2e3db"/>
  <rect x="300.5" y="492.0" width="10.2" height="36.0" rx="2" fill="#e2e3db"/>
  <rect x="312.6" y="492.0" width="10.2" height="36.0" rx="2" fill="#e2e3db"/>
  <rect x="324.8" y="492.0" width="10.2" height="36.0" rx="2" fill="#e2e3db"/>
  <rect x="337.0" y="492.0" width="10.2" height="36.0" rx="2" fill="#e2e3db"/>
  <rect x="349.1" y="492.0" width="10.2" height="36.0" rx="2" fill="#e2e3db"/>
  <rect x="361.2" y="492.0" width="10.2" height="36.0" rx="2" fill="#b4c1b6"/>
  <rect x="373.4" y="492.0" width="10.2" height="36.0" rx="2" fill="#8a9a8f"/>
  <rect x="385.6" y="492.0" width="10.2" height="36.0" rx="2" fill="#b4c1b6"/>
  <rect x="397.7" y="492.0" width="10.2" height="36.0" rx="2" fill="#b4c1b6"/>
  <rect x="409.9" y="492.0" width="10.2" height="36.0" rx="2" fill="#9fada2"/>
  <rect x="422.0" y="492.0" width="10.2" height="36.0" rx="2" fill="#b4c1b6"/>
  <rect x="434.1" y="492.0" width="10.2" height="36.0" rx="2" fill="#e2e3db"/>
  <rect x="446.3" y="492.0" width="10.2" height="36.0" rx="2" fill="#e2e3db"/>
  <rect x="458.4" y="492.0" width="10.2" height="36.0" rx="2" fill="#e2e3db"/>
  <rect x="470.6" y="492.0" width="10.2" height="36.0" rx="2" fill="#e2e3db"/>
  <rect x="482.8" y="492.0" width="10.2" height="36.0" rx="2" fill="#e2e3db"/>
  <rect x="494.9" y="492.0" width="10.2" height="36.0" rx="2" fill="#abb8ad"/>
  <rect x="507.1" y="492.0" width="10.2" height="36.0" rx="2" fill="#e2e3db"/>
  <rect x="519.2" y="492.0" width="10.2" height="36.0" rx="2" fill="#4e6257"/>
  <rect x="531.4" y="492.0" width="10.2" height="36.0" rx="2" fill="#465a4f"/>
  <rect x="543.5" y="492.0" width="10.2" height="36.0" rx="2" fill="#2e453a"/>
  <rect x="555.7" y="492.0" width="10.2" height="36.0" rx="2" fill="#78887e"/>
  <rect x="567.8" y="492.0" width="10.2" height="36.0" rx="2" fill="#9fada2"/>
  <rect x="580.0" y="492.0" width="10.2" height="36.0" rx="2" fill="#e2e3db"/>
  <rect x="592.1" y="492.0" width="10.2" height="36.0" rx="2" fill="#e2e3db"/>
  <rect x="604.2" y="492.0" width="10.2" height="36.0" rx="2" fill="#e2e3db"/>
  <rect x="616.4" y="492.0" width="10.2" height="36.0" rx="2" fill="#e2e3db"/>
  <rect x="628.5" y="492.0" width="10.2" height="36.0" rx="2" fill="#e2e3db"/>
  <rect x="640.7" y="492.0" width="10.2" height="36.0" rx="2" fill="#e2e3db"/>
  <rect x="652.9" y="492.0" width="10.2" height="36.0" rx="2" fill="#e2e3db"/>
  <text x="166" y="555.0" text-anchor="end" font-family="Arial, sans-serif" font-size="14" fill="#4b6257">Z.ai</text>
  <rect x="179.0" y="532.0" width="10.2" height="36.0" rx="2" fill="#e2e3db"/>
  <rect x="191.2" y="532.0" width="10.2" height="36.0" rx="2" fill="#e2e3db"/>
  <rect x="203.3" y="532.0" width="10.2" height="36.0" rx="2" fill="#e2e3db"/>
  <rect x="215.4" y="532.0" width="10.2" height="36.0" rx="2" fill="#95a499"/>
  <rect x="227.6" y="532.0" width="10.2" height="36.0" rx="2" fill="#e2e3db"/>
  <rect x="239.8" y="532.0" width="10.2" height="36.0" rx="2" fill="#abb8ad"/>
  <rect x="251.9" y="532.0" width="10.2" height="36.0" rx="2" fill="#839388"/>
  <rect x="264.1" y="532.0" width="10.2" height="36.0" rx="2" fill="#a5b2a7"/>
  <rect x="276.2" y="532.0" width="10.2" height="36.0" rx="2" fill="#e2e3db"/>
  <rect x="288.4" y="532.0" width="10.2" height="36.0" rx="2" fill="#e2e3db"/>
  <rect x="300.5" y="532.0" width="10.2" height="36.0" rx="2" fill="#abb8ad"/>
  <rect x="312.6" y="532.0" width="10.2" height="36.0" rx="2" fill="#b4c1b6"/>
  <rect x="324.8" y="532.0" width="10.2" height="36.0" rx="2" fill="#e2e3db"/>
  <rect x="337.0" y="532.0" width="10.2" height="36.0" rx="2" fill="#b4c1b6"/>
  <rect x="349.1" y="532.0" width="10.2" height="36.0" rx="2" fill="#9aa89d"/>
  <rect x="361.2" y="532.0" width="10.2" height="36.0" rx="2" fill="#b4c1b6"/>
  <rect x="373.4" y="532.0" width="10.2" height="36.0" rx="2" fill="#b4c1b6"/>
  <rect x="385.6" y="532.0" width="10.2" height="36.0" rx="2" fill="#e2e3db"/>
  <rect x="397.7" y="532.0" width="10.2" height="36.0" rx="2" fill="#e2e3db"/>
  <rect x="409.9" y="532.0" width="10.2" height="36.0" rx="2" fill="#e2e3db"/>
  <rect x="422.0" y="532.0" width="10.2" height="36.0" rx="2" fill="#e2e3db"/>
  <rect x="434.1" y="532.0" width="10.2" height="36.0" rx="2" fill="#e2e3db"/>
  <rect x="446.3" y="532.0" width="10.2" height="36.0" rx="2" fill="#e2e3db"/>
  <rect x="458.4" y="532.0" width="10.2" height="36.0" rx="2" fill="#a5b2a7"/>
  <rect x="470.6" y="532.0" width="10.2" height="36.0" rx="2" fill="#52665b"/>
  <rect x="482.8" y="532.0" width="10.2" height="36.0" rx="2" fill="#64776c"/>
  <rect x="494.9" y="532.0" width="10.2" height="36.0" rx="2" fill="#86968b"/>
  <rect x="507.1" y="532.0" width="10.2" height="36.0" rx="2" fill="#839388"/>
  <rect x="519.2" y="532.0" width="10.2" height="36.0" rx="2" fill="#9aa89d"/>
  <rect x="531.4" y="532.0" width="10.2" height="36.0" rx="2" fill="#e2e3db"/>
  <rect x="543.5" y="532.0" width="10.2" height="36.0" rx="2" fill="#e2e3db"/>
  <rect x="555.7" y="532.0" width="10.2" height="36.0" rx="2" fill="#e2e3db"/>
  <rect x="567.8" y="532.0" width="10.2" height="36.0" rx="2" fill="#9aa89d"/>
  <rect x="580.0" y="532.0" width="10.2" height="36.0" rx="2" fill="#91a095"/>
  <rect x="592.1" y="532.0" width="10.2" height="36.0" rx="2" fill="#728479"/>
  <rect x="604.2" y="532.0" width="10.2" height="36.0" rx="2" fill="#86968b"/>
  <rect x="616.4" y="532.0" width="10.2" height="36.0" rx="2" fill="#abb8ad"/>
  <rect x="628.5" y="532.0" width="10.2" height="36.0" rx="2" fill="#e2e3db"/>
  <rect x="640.7" y="532.0" width="10.2" height="36.0" rx="2" fill="#e2e3db"/>
  <rect x="652.9" y="532.0" width="10.2" height="36.0" rx="2" fill="#e2e3db"/>
  <text x="166" y="595.0" text-anchor="end" font-family="Arial, sans-serif" font-size="14" fill="#4b6257">DeepSeek</text>
  <rect x="179.0" y="572.0" width="10.2" height="36.0" rx="2" fill="#e2e3db"/>
  <rect x="191.2" y="572.0" width="10.2" height="36.0" rx="2" fill="#e2e3db"/>
  <rect x="203.3" y="572.0" width="10.2" height="36.0" rx="2" fill="#e2e3db"/>
  <rect x="215.4" y="572.0" width="10.2" height="36.0" rx="2" fill="#e2e3db"/>
  <rect x="227.6" y="572.0" width="10.2" height="36.0" rx="2" fill="#e2e3db"/>
  <rect x="239.8" y="572.0" width="10.2" height="36.0" rx="2" fill="#e2e3db"/>
  <rect x="251.9" y="572.0" width="10.2" height="36.0" rx="2" fill="#e2e3db"/>
  <rect x="264.1" y="572.0" width="10.2" height="36.0" rx="2" fill="#e2e3db"/>
  <rect x="276.2" y="572.0" width="10.2" height="36.0" rx="2" fill="#e2e3db"/>
  <rect x="288.4" y="572.0" width="10.2" height="36.0" rx="2" fill="#e2e3db"/>
  <rect x="300.5" y="572.0" width="10.2" height="36.0" rx="2" fill="#e2e3db"/>
  <rect x="312.6" y="572.0" width="10.2" height="36.0" rx="2" fill="#e2e3db"/>
  <rect x="324.8" y="572.0" width="10.2" height="36.0" rx="2" fill="#e2e3db"/>
  <rect x="337.0" y="572.0" width="10.2" height="36.0" rx="2" fill="#e2e3db"/>
  <rect x="349.1" y="572.0" width="10.2" height="36.0" rx="2" fill="#e2e3db"/>
  <rect x="361.2" y="572.0" width="10.2" height="36.0" rx="2" fill="#e2e3db"/>
  <rect x="373.4" y="572.0" width="10.2" height="36.0" rx="2" fill="#9fada2"/>
  <rect x="385.6" y="572.0" width="10.2" height="36.0" rx="2" fill="#8d9d92"/>
  <rect x="397.7" y="572.0" width="10.2" height="36.0" rx="2" fill="#91a095"/>
  <rect x="409.9" y="572.0" width="10.2" height="36.0" rx="2" fill="#a5b2a7"/>
  <rect x="422.0" y="572.0" width="10.2" height="36.0" rx="2" fill="#8d9d92"/>
  <rect x="434.1" y="572.0" width="10.2" height="36.0" rx="2" fill="#e2e3db"/>
  <rect x="446.3" y="572.0" width="10.2" height="36.0" rx="2" fill="#e2e3db"/>
  <rect x="458.4" y="572.0" width="10.2" height="36.0" rx="2" fill="#e2e3db"/>
  <rect x="470.6" y="572.0" width="10.2" height="36.0" rx="2" fill="#e2e3db"/>
  <rect x="482.8" y="572.0" width="10.2" height="36.0" rx="2" fill="#e2e3db"/>
  <rect x="494.9" y="572.0" width="10.2" height="36.0" rx="2" fill="#e2e3db"/>
  <rect x="507.1" y="572.0" width="10.2" height="36.0" rx="2" fill="#e2e3db"/>
  <rect x="519.2" y="572.0" width="10.2" height="36.0" rx="2" fill="#e2e3db"/>
  <rect x="531.4" y="572.0" width="10.2" height="36.0" rx="2" fill="#e2e3db"/>
  <rect x="543.5" y="572.0" width="10.2" height="36.0" rx="2" fill="#e2e3db"/>
  <rect x="555.7" y="572.0" width="10.2" height="36.0" rx="2" fill="#e2e3db"/>
  <rect x="567.8" y="572.0" width="10.2" height="36.0" rx="2" fill="#e2e3db"/>
  <rect x="580.0" y="572.0" width="10.2" height="36.0" rx="2" fill="#e2e3db"/>
  <rect x="592.1" y="572.0" width="10.2" height="36.0" rx="2" fill="#e2e3db"/>
  <rect x="604.2" y="572.0" width="10.2" height="36.0" rx="2" fill="#e2e3db"/>
  <rect x="616.4" y="572.0" width="10.2" height="36.0" rx="2" fill="#728479"/>
  <rect x="628.5" y="572.0" width="10.2" height="36.0" rx="2" fill="#839388"/>
  <rect x="640.7" y="572.0" width="10.2" height="36.0" rx="2" fill="#abb8ad"/>
  <rect x="652.9" y="572.0" width="10.2" height="36.0" rx="2" fill="#e2e3db"/>
  <text x="166" y="635.0" text-anchor="end" font-family="Arial, sans-serif" font-size="14" fill="#4b6257">MiniMax</text>
  <rect x="179.0" y="612.0" width="10.2" height="36.0" rx="2" fill="#e2e3db"/>
  <rect x="191.2" y="612.0" width="10.2" height="36.0" rx="2" fill="#e2e3db"/>
  <rect x="203.3" y="612.0" width="10.2" height="36.0" rx="2" fill="#e2e3db"/>
  <rect x="215.4" y="612.0" width="10.2" height="36.0" rx="2" fill="#e2e3db"/>
  <rect x="227.6" y="612.0" width="10.2" height="36.0" rx="2" fill="#e2e3db"/>
  <rect x="239.8" y="612.0" width="10.2" height="36.0" rx="2" fill="#e2e3db"/>
  <rect x="251.9" y="612.0" width="10.2" height="36.0" rx="2" fill="#91a095"/>
  <rect x="264.1" y="612.0" width="10.2" height="36.0" rx="2" fill="#a5b2a7"/>
  <rect x="276.2" y="612.0" width="10.2" height="36.0" rx="2" fill="#b4c1b6"/>
  <rect x="288.4" y="612.0" width="10.2" height="36.0" rx="2" fill="#b4c1b6"/>
  <rect x="300.5" y="612.0" width="10.2" height="36.0" rx="2" fill="#b4c1b6"/>
  <rect x="312.6" y="612.0" width="10.2" height="36.0" rx="2" fill="#a5b2a7"/>
  <rect x="324.8" y="612.0" width="10.2" height="36.0" rx="2" fill="#e2e3db"/>
  <rect x="337.0" y="612.0" width="10.2" height="36.0" rx="2" fill="#e2e3db"/>
  <rect x="349.1" y="612.0" width="10.2" height="36.0" rx="2" fill="#abb8ad"/>
  <rect x="361.2" y="612.0" width="10.2" height="36.0" rx="2" fill="#e2e3db"/>
  <rect x="373.4" y="612.0" width="10.2" height="36.0" rx="2" fill="#e2e3db"/>
  <rect x="385.6" y="612.0" width="10.2" height="36.0" rx="2" fill="#e2e3db"/>
  <rect x="397.7" y="612.0" width="10.2" height="36.0" rx="2" fill="#e2e3db"/>
  <rect x="409.9" y="612.0" width="10.2" height="36.0" rx="2" fill="#e2e3db"/>
  <rect x="422.0" y="612.0" width="10.2" height="36.0" rx="2" fill="#e2e3db"/>
  <rect x="434.1" y="612.0" width="10.2" height="36.0" rx="2" fill="#abb8ad"/>
  <rect x="446.3" y="612.0" width="10.2" height="36.0" rx="2" fill="#91a095"/>
  <rect x="458.4" y="612.0" width="10.2" height="36.0" rx="2" fill="#a5b2a7"/>
  <rect x="470.6" y="612.0" width="10.2" height="36.0" rx="2" fill="#b4c1b6"/>
  <rect x="482.8" y="612.0" width="10.2" height="36.0" rx="2" fill="#e2e3db"/>
  <rect x="494.9" y="612.0" width="10.2" height="36.0" rx="2" fill="#e2e3db"/>
  <rect x="507.1" y="612.0" width="10.2" height="36.0" rx="2" fill="#e2e3db"/>
  <rect x="519.2" y="612.0" width="10.2" height="36.0" rx="2" fill="#e2e3db"/>
  <rect x="531.4" y="612.0" width="10.2" height="36.0" rx="2" fill="#e2e3db"/>
  <rect x="543.5" y="612.0" width="10.2" height="36.0" rx="2" fill="#e2e3db"/>
  <rect x="555.7" y="612.0" width="10.2" height="36.0" rx="2" fill="#e2e3db"/>
  <rect x="567.8" y="612.0" width="10.2" height="36.0" rx="2" fill="#e2e3db"/>
  <rect x="580.0" y="612.0" width="10.2" height="36.0" rx="2" fill="#e2e3db"/>
  <rect x="592.1" y="612.0" width="10.2" height="36.0" rx="2" fill="#e2e3db"/>
  <rect x="604.2" y="612.0" width="10.2" height="36.0" rx="2" fill="#e2e3db"/>
  <rect x="616.4" y="612.0" width="10.2" height="36.0" rx="2" fill="#e2e3db"/>
  <rect x="628.5" y="612.0" width="10.2" height="36.0" rx="2" fill="#e2e3db"/>
  <rect x="640.7" y="612.0" width="10.2" height="36.0" rx="2" fill="#e2e3db"/>
  <rect x="652.9" y="612.0" width="10.2" height="36.0" rx="2" fill="#e2e3db"/>
  <text x="166" y="675.0" text-anchor="end" font-family="Arial, sans-serif" font-size="14" fill="#4b6257">Alibaba</text>
  <rect x="179.0" y="652.0" width="10.2" height="36.0" rx="2" fill="#e2e3db"/>
  <rect x="191.2" y="652.0" width="10.2" height="36.0" rx="2" fill="#e2e3db"/>
  <rect x="203.3" y="652.0" width="10.2" height="36.0" rx="2" fill="#e2e3db"/>
  <rect x="215.4" y="652.0" width="10.2" height="36.0" rx="2" fill="#e2e3db"/>
  <rect x="227.6" y="652.0" width="10.2" height="36.0" rx="2" fill="#abb8ad"/>
  <rect x="239.8" y="652.0" width="10.2" height="36.0" rx="2" fill="#a5b2a7"/>
  <rect x="251.9" y="652.0" width="10.2" height="36.0" rx="2" fill="#e2e3db"/>
  <rect x="264.1" y="652.0" width="10.2" height="36.0" rx="2" fill="#b4c1b6"/>
  <rect x="276.2" y="652.0" width="10.2" height="36.0" rx="2" fill="#e2e3db"/>
  <rect x="288.4" y="652.0" width="10.2" height="36.0" rx="2" fill="#e2e3db"/>
  <rect x="300.5" y="652.0" width="10.2" height="36.0" rx="2" fill="#e2e3db"/>
  <rect x="312.6" y="652.0" width="10.2" height="36.0" rx="2" fill="#e2e3db"/>
  <rect x="324.8" y="652.0" width="10.2" height="36.0" rx="2" fill="#e2e3db"/>
  <rect x="337.0" y="652.0" width="10.2" height="36.0" rx="2" fill="#a5b2a7"/>
  <rect x="349.1" y="652.0" width="10.2" height="36.0" rx="2" fill="#e2e3db"/>
  <rect x="361.2" y="652.0" width="10.2" height="36.0" rx="2" fill="#91a095"/>
  <rect x="373.4" y="652.0" width="10.2" height="36.0" rx="2" fill="#91a095"/>
  <rect x="385.6" y="652.0" width="10.2" height="36.0" rx="2" fill="#abb8ad"/>
  <rect x="397.7" y="652.0" width="10.2" height="36.0" rx="2" fill="#abb8ad"/>
  <rect x="409.9" y="652.0" width="10.2" height="36.0" rx="2" fill="#e2e3db"/>
  <rect x="422.0" y="652.0" width="10.2" height="36.0" rx="2" fill="#b4c1b6"/>
  <rect x="434.1" y="652.0" width="10.2" height="36.0" rx="2" fill="#b4c1b6"/>
  <rect x="446.3" y="652.0" width="10.2" height="36.0" rx="2" fill="#a5b2a7"/>
  <rect x="458.4" y="652.0" width="10.2" height="36.0" rx="2" fill="#e2e3db"/>
  <rect x="470.6" y="652.0" width="10.2" height="36.0" rx="2" fill="#e2e3db"/>
  <rect x="482.8" y="652.0" width="10.2" height="36.0" rx="2" fill="#e2e3db"/>
  <rect x="494.9" y="652.0" width="10.2" height="36.0" rx="2" fill="#e2e3db"/>
  <rect x="507.1" y="652.0" width="10.2" height="36.0" rx="2" fill="#e2e3db"/>
  <rect x="519.2" y="652.0" width="10.2" height="36.0" rx="2" fill="#e2e3db"/>
  <rect x="531.4" y="652.0" width="10.2" height="36.0" rx="2" fill="#e2e3db"/>
  <rect x="543.5" y="652.0" width="10.2" height="36.0" rx="2" fill="#e2e3db"/>
  <rect x="555.7" y="652.0" width="10.2" height="36.0" rx="2" fill="#839388"/>
  <rect x="567.8" y="652.0" width="10.2" height="36.0" rx="2" fill="#728479"/>
  <rect x="580.0" y="652.0" width="10.2" height="36.0" rx="2" fill="#78887e"/>
  <rect x="592.1" y="652.0" width="10.2" height="36.0" rx="2" fill="#697b70"/>
  <rect x="604.2" y="652.0" width="10.2" height="36.0" rx="2" fill="#95a499"/>
  <rect x="616.4" y="652.0" width="10.2" height="36.0" rx="2" fill="#e2e3db"/>
  <rect x="628.5" y="652.0" width="10.2" height="36.0" rx="2" fill="#9fada2"/>
  <rect x="640.7" y="652.0" width="10.2" height="36.0" rx="2" fill="#b4c1b6"/>
  <rect x="652.9" y="652.0" width="10.2" height="36.0" rx="2" fill="#e2e3db"/>
  <text x="166" y="715.0" text-anchor="end" font-family="Arial, sans-serif" font-size="14" fill="#4b6257">ByteDance</text>
  <rect x="179.0" y="692.0" width="10.2" height="36.0" rx="2" fill="#e2e3db"/>
  <rect x="191.2" y="692.0" width="10.2" height="36.0" rx="2" fill="#e2e3db"/>
  <rect x="203.3" y="692.0" width="10.2" height="36.0" rx="2" fill="#e2e3db"/>
  <rect x="215.4" y="692.0" width="10.2" height="36.0" rx="2" fill="#e2e3db"/>
  <rect x="227.6" y="692.0" width="10.2" height="36.0" rx="2" fill="#e2e3db"/>
  <rect x="239.8" y="692.0" width="10.2" height="36.0" rx="2" fill="#e2e3db"/>
  <rect x="251.9" y="692.0" width="10.2" height="36.0" rx="2" fill="#e2e3db"/>
  <rect x="264.1" y="692.0" width="10.2" height="36.0" rx="2" fill="#b4c1b6"/>
  <rect x="276.2" y="692.0" width="10.2" height="36.0" rx="2" fill="#e2e3db"/>
  <rect x="288.4" y="692.0" width="10.2" height="36.0" rx="2" fill="#e2e3db"/>
  <rect x="300.5" y="692.0" width="10.2" height="36.0" rx="2" fill="#e2e3db"/>
  <rect x="312.6" y="692.0" width="10.2" height="36.0" rx="2" fill="#e2e3db"/>
  <rect x="324.8" y="692.0" width="10.2" height="36.0" rx="2" fill="#e2e3db"/>
  <rect x="337.0" y="692.0" width="10.2" height="36.0" rx="2" fill="#e2e3db"/>
  <rect x="349.1" y="692.0" width="10.2" height="36.0" rx="2" fill="#e2e3db"/>
  <rect x="361.2" y="692.0" width="10.2" height="36.0" rx="2" fill="#e2e3db"/>
  <rect x="373.4" y="692.0" width="10.2" height="36.0" rx="2" fill="#e2e3db"/>
  <rect x="385.6" y="692.0" width="10.2" height="36.0" rx="2" fill="#e2e3db"/>
  <rect x="397.7" y="692.0" width="10.2" height="36.0" rx="2" fill="#e2e3db"/>
  <rect x="409.9" y="692.0" width="10.2" height="36.0" rx="2" fill="#e2e3db"/>
  <rect x="422.0" y="692.0" width="10.2" height="36.0" rx="2" fill="#e2e3db"/>
  <rect x="434.1" y="692.0" width="10.2" height="36.0" rx="2" fill="#e2e3db"/>
  <rect x="446.3" y="692.0" width="10.2" height="36.0" rx="2" fill="#e2e3db"/>
  <rect x="458.4" y="692.0" width="10.2" height="36.0" rx="2" fill="#e2e3db"/>
  <rect x="470.6" y="692.0" width="10.2" height="36.0" rx="2" fill="#e2e3db"/>
  <rect x="482.8" y="692.0" width="10.2" height="36.0" rx="2" fill="#e2e3db"/>
  <rect x="494.9" y="692.0" width="10.2" height="36.0" rx="2" fill="#e2e3db"/>
  <rect x="507.1" y="692.0" width="10.2" height="36.0" rx="2" fill="#e2e3db"/>
  <rect x="519.2" y="692.0" width="10.2" height="36.0" rx="2" fill="#e2e3db"/>
  <rect x="531.4" y="692.0" width="10.2" height="36.0" rx="2" fill="#e2e3db"/>
  <rect x="543.5" y="692.0" width="10.2" height="36.0" rx="2" fill="#e2e3db"/>
  <rect x="555.7" y="692.0" width="10.2" height="36.0" rx="2" fill="#e2e3db"/>
  <rect x="567.8" y="692.0" width="10.2" height="36.0" rx="2" fill="#e2e3db"/>
  <rect x="580.0" y="692.0" width="10.2" height="36.0" rx="2" fill="#e2e3db"/>
  <rect x="592.1" y="692.0" width="10.2" height="36.0" rx="2" fill="#e2e3db"/>
  <rect x="604.2" y="692.0" width="10.2" height="36.0" rx="2" fill="#e2e3db"/>
  <rect x="616.4" y="692.0" width="10.2" height="36.0" rx="2" fill="#e2e3db"/>
  <rect x="628.5" y="692.0" width="10.2" height="36.0" rx="2" fill="#e2e3db"/>
  <rect x="640.7" y="692.0" width="10.2" height="36.0" rx="2" fill="#e2e3db"/>
  <rect x="652.9" y="692.0" width="10.2" height="36.0" rx="2" fill="#e2e3db"/>
  <text x="166" y="755.0" text-anchor="end" font-family="Arial, sans-serif" font-size="14" fill="#4b6257">Tencent</text>
  <rect x="179.0" y="732.0" width="10.2" height="36.0" rx="2" fill="#e2e3db"/>
  <rect x="191.2" y="732.0" width="10.2" height="36.0" rx="2" fill="#e2e3db"/>
  <rect x="203.3" y="732.0" width="10.2" height="36.0" rx="2" fill="#e2e3db"/>
  <rect x="215.4" y="732.0" width="10.2" height="36.0" rx="2" fill="#e2e3db"/>
  <rect x="227.6" y="732.0" width="10.2" height="36.0" rx="2" fill="#e2e3db"/>
  <rect x="239.8" y="732.0" width="10.2" height="36.0" rx="2" fill="#e2e3db"/>
  <rect x="251.9" y="732.0" width="10.2" height="36.0" rx="2" fill="#e2e3db"/>
  <rect x="264.1" y="732.0" width="10.2" height="36.0" rx="2" fill="#e2e3db"/>
  <rect x="276.2" y="732.0" width="10.2" height="36.0" rx="2" fill="#e2e3db"/>
  <rect x="288.4" y="732.0" width="10.2" height="36.0" rx="2" fill="#e2e3db"/>
  <rect x="300.5" y="732.0" width="10.2" height="36.0" rx="2" fill="#e2e3db"/>
  <rect x="312.6" y="732.0" width="10.2" height="36.0" rx="2" fill="#e2e3db"/>
  <rect x="324.8" y="732.0" width="10.2" height="36.0" rx="2" fill="#e2e3db"/>
  <rect x="337.0" y="732.0" width="10.2" height="36.0" rx="2" fill="#e2e3db"/>
  <rect x="349.1" y="732.0" width="10.2" height="36.0" rx="2" fill="#e2e3db"/>
  <rect x="361.2" y="732.0" width="10.2" height="36.0" rx="2" fill="#e2e3db"/>
  <rect x="373.4" y="732.0" width="10.2" height="36.0" rx="2" fill="#e2e3db"/>
  <rect x="385.6" y="732.0" width="10.2" height="36.0" rx="2" fill="#e2e3db"/>
  <rect x="397.7" y="732.0" width="10.2" height="36.0" rx="2" fill="#e2e3db"/>
  <rect x="409.9" y="732.0" width="10.2" height="36.0" rx="2" fill="#e2e3db"/>
  <rect x="422.0" y="732.0" width="10.2" height="36.0" rx="2" fill="#e2e3db"/>
  <rect x="434.1" y="732.0" width="10.2" height="36.0" rx="2" fill="#e2e3db"/>
  <rect x="446.3" y="732.0" width="10.2" height="36.0" rx="2" fill="#e2e3db"/>
  <rect x="458.4" y="732.0" width="10.2" height="36.0" rx="2" fill="#e2e3db"/>
  <rect x="470.6" y="732.0" width="10.2" height="36.0" rx="2" fill="#e2e3db"/>
  <rect x="482.8" y="732.0" width="10.2" height="36.0" rx="2" fill="#e2e3db"/>
  <rect x="494.9" y="732.0" width="10.2" height="36.0" rx="2" fill="#e2e3db"/>
  <rect x="507.1" y="732.0" width="10.2" height="36.0" rx="2" fill="#95a499"/>
  <rect x="519.2" y="732.0" width="10.2" height="36.0" rx="2" fill="#e2e3db"/>
  <rect x="531.4" y="732.0" width="10.2" height="36.0" rx="2" fill="#abb8ad"/>
  <rect x="543.5" y="732.0" width="10.2" height="36.0" rx="2" fill="#e2e3db"/>
  <rect x="555.7" y="732.0" width="10.2" height="36.0" rx="2" fill="#e2e3db"/>
  <rect x="567.8" y="732.0" width="10.2" height="36.0" rx="2" fill="#e2e3db"/>
  <rect x="580.0" y="732.0" width="10.2" height="36.0" rx="2" fill="#e2e3db"/>
  <rect x="592.1" y="732.0" width="10.2" height="36.0" rx="2" fill="#86968b"/>
  <rect x="604.2" y="732.0" width="10.2" height="36.0" rx="2" fill="#e2e3db"/>
  <rect x="616.4" y="732.0" width="10.2" height="36.0" rx="2" fill="#e2e3db"/>
  <rect x="628.5" y="732.0" width="10.2" height="36.0" rx="2" fill="#e2e3db"/>
  <rect x="640.7" y="732.0" width="10.2" height="36.0" rx="2" fill="#e2e3db"/>
  <rect x="652.9" y="732.0" width="10.2" height="36.0" rx="2" fill="#e2e3db"/>
  <text x="166" y="795.0" text-anchor="end" font-family="Arial, sans-serif" font-size="14" fill="#4b6257">Xiaomi</text>
  <rect x="179.0" y="772.0" width="10.2" height="36.0" rx="2" fill="#e2e3db"/>
  <rect x="191.2" y="772.0" width="10.2" height="36.0" rx="2" fill="#e2e3db"/>
  <rect x="203.3" y="772.0" width="10.2" height="36.0" rx="2" fill="#e2e3db"/>
  <rect x="215.4" y="772.0" width="10.2" height="36.0" rx="2" fill="#e2e3db"/>
  <rect x="227.6" y="772.0" width="10.2" height="36.0" rx="2" fill="#e2e3db"/>
  <rect x="239.8" y="772.0" width="10.2" height="36.0" rx="2" fill="#e2e3db"/>
  <rect x="251.9" y="772.0" width="10.2" height="36.0" rx="2" fill="#e2e3db"/>
  <rect x="264.1" y="772.0" width="10.2" height="36.0" rx="2" fill="#e2e3db"/>
  <rect x="276.2" y="772.0" width="10.2" height="36.0" rx="2" fill="#e2e3db"/>
  <rect x="288.4" y="772.0" width="10.2" height="36.0" rx="2" fill="#e2e3db"/>
  <rect x="300.5" y="772.0" width="10.2" height="36.0" rx="2" fill="#e2e3db"/>
  <rect x="312.6" y="772.0" width="10.2" height="36.0" rx="2" fill="#9aa89d"/>
  <rect x="324.8" y="772.0" width="10.2" height="36.0" rx="2" fill="#e2e3db"/>
  <rect x="337.0" y="772.0" width="10.2" height="36.0" rx="2" fill="#e2e3db"/>
  <rect x="349.1" y="772.0" width="10.2" height="36.0" rx="2" fill="#e2e3db"/>
  <rect x="361.2" y="772.0" width="10.2" height="36.0" rx="2" fill="#e2e3db"/>
  <rect x="373.4" y="772.0" width="10.2" height="36.0" rx="2" fill="#9fada2"/>
  <rect x="385.6" y="772.0" width="10.2" height="36.0" rx="2" fill="#9aa89d"/>
  <rect x="397.7" y="772.0" width="10.2" height="36.0" rx="2" fill="#e2e3db"/>
  <rect x="409.9" y="772.0" width="10.2" height="36.0" rx="2" fill="#e2e3db"/>
  <rect x="422.0" y="772.0" width="10.2" height="36.0" rx="2" fill="#e2e3db"/>
  <rect x="434.1" y="772.0" width="10.2" height="36.0" rx="2" fill="#e2e3db"/>
  <rect x="446.3" y="772.0" width="10.2" height="36.0" rx="2" fill="#e2e3db"/>
  <rect x="458.4" y="772.0" width="10.2" height="36.0" rx="2" fill="#e2e3db"/>
  <rect x="470.6" y="772.0" width="10.2" height="36.0" rx="2" fill="#e2e3db"/>
  <rect x="482.8" y="772.0" width="10.2" height="36.0" rx="2" fill="#e2e3db"/>
  <rect x="494.9" y="772.0" width="10.2" height="36.0" rx="2" fill="#e2e3db"/>
  <rect x="507.1" y="772.0" width="10.2" height="36.0" rx="2" fill="#e2e3db"/>
  <rect x="519.2" y="772.0" width="10.2" height="36.0" rx="2" fill="#e2e3db"/>
  <rect x="531.4" y="772.0" width="10.2" height="36.0" rx="2" fill="#e2e3db"/>
  <rect x="543.5" y="772.0" width="10.2" height="36.0" rx="2" fill="#e2e3db"/>
  <rect x="555.7" y="772.0" width="10.2" height="36.0" rx="2" fill="#e2e3db"/>
  <rect x="567.8" y="772.0" width="10.2" height="36.0" rx="2" fill="#e2e3db"/>
  <rect x="580.0" y="772.0" width="10.2" height="36.0" rx="2" fill="#e2e3db"/>
  <rect x="592.1" y="772.0" width="10.2" height="36.0" rx="2" fill="#e2e3db"/>
  <rect x="604.2" y="772.0" width="10.2" height="36.0" rx="2" fill="#e2e3db"/>
  <rect x="616.4" y="772.0" width="10.2" height="36.0" rx="2" fill="#e2e3db"/>
  <rect x="628.5" y="772.0" width="10.2" height="36.0" rx="2" fill="#b4c1b6"/>
  <rect x="640.7" y="772.0" width="10.2" height="36.0" rx="2" fill="#8a9a8f"/>
  <rect x="652.9" y="772.0" width="10.2" height="36.0" rx="2" fill="#b4c1b6"/>
  <text x="179.0" y="834" font-family="Arial, sans-serif" font-size="14" fill="#4b6257">Jan</text>
  <text x="337.0" y="834" font-family="Arial, sans-serif" font-size="14" fill="#4b6257">Apr</text>
  <text x="494.9" y="834" font-family="Arial, sans-serif" font-size="14" fill="#4b6257">Jul</text>
  <text x="652.9" y="834" font-family="Arial, sans-serif" font-size="14" fill="#4b6257">Oct</text>
  <text x="56" y="912" font-family="Arial, sans-serif" font-size="17" fill="#4b6257">HN stories per company, week by week, 2026</text>
  <text x="664" y="912" text-anchor="end" font-family="Arial, sans-serif" font-size="16" fill="#4b6257">simoncos</text>
</svg>
