<svg xmlns="http://www.w3.org/2000/svg" viewBox="0 0 640 360" role="img" aria-label="Evidence to analysis memo">
  <defs>
    <linearGradient id="bg" x1="0" y1="0" x2="1" y2="1">
      <stop offset="0" stop-color="#fbfaf6"/>
      <stop offset="1" stop-color="#f0ece3"/>
    </linearGradient>
    <pattern id="grid" width="24" height="24" patternUnits="userSpaceOnUse">
      <path d="M24 0H0V24" fill="none" stroke="#182033" stroke-opacity="0.055" stroke-width="1"/>
    </pattern>
    <filter id="softShadow" x="-20%" y="-20%" width="140%" height="140%">
      <feDropShadow dx="0" dy="10" stdDeviation="12" flood-color="#182033" flood-opacity="0.08"/>
    </filter>
  </defs>
  <rect width="640" height="360" rx="28" fill="url(#bg)"/>
  <rect width="640" height="360" rx="28" fill="url(#grid)"/>
  <circle cx="510" cy="78" r="118" fill="#0b7285" opacity="0.105"/>
  <circle cx="125" cy="300" r="96" fill="#1659c5" opacity="0.075"/>
  <g stroke-linecap="round" stroke-linejoin="round">

    <rect x="76" y="96" width="122" height="150" rx="16" fill="rgba(255,255,255,.56)" stroke="#182033" stroke-opacity=".30" stroke-width="1.8" filter="url(#softShadow)"/>
    <path d="M104 216V158M132 216V134M160 216V178" stroke="#182033" stroke-opacity=".32" stroke-width="9"/>
    <rect x="250" y="84" width="142" height="142" rx="18" fill="#fff" fill-opacity=".50" stroke="#182033" stroke-opacity=".38" stroke-width="2.2" filter="url(#softShadow)"/>
    <path d="M250 131h142M250 178h142M297 84v142M344 84v142" stroke="#182033" stroke-opacity=".16" stroke-width="1.6"/>
    <circle cx="344" cy="131" r="18" fill="#0b7285" opacity=".22" stroke="#0b7285" stroke-opacity=".58" stroke-width="2"/>
    <rect x="434" y="118" width="96" height="78" rx="16" fill="#1659c5" fill-opacity=".14" stroke="#1659c5" stroke-opacity=".46" stroke-width="2.2"/>
    <path d="M392 154H434" stroke="#1659c5" stroke-opacity=".62" stroke-width="3"/>
    <path d="M198 170H250" stroke="#182033" stroke-opacity=".34" stroke-width="2.8"/>

  </g>
</svg>
